<?xml version="1.0" standalone="no"?>
<!DOCTYPE svg PUBLIC "-//W3C//DTD SVG 20010904//EN"
 "http://www.w3.org/TR/2001/REC-SVG-20010904/DTD/svg10.dtd">
<svg version="1.0" xmlns="http://www.w3.org/2000/svg"
 width="1200" height="100" viewBox="0 0 1200 100"
 preserveAspectRatio="xMidYMid meet">

<g transform="translate(0.000000,100.000000) scale(0.100000,-0.100000)"
fill="#5658DD" stroke="none">
<path d="M360 867 l0 -132 368 -368 c352 -352 369 -367 405 -367 l37 0 0 495
0 495 -120 0 -120 0 0 -242 0 -243 -248 248 c-235 235 -249 247 -285 247 l-37
0 0 -133z"/>
<path d="M5970 862 l0 -137 218 -218 c119 -119 222 -217 227 -217 5 0 54 44
107 97 l98 98 0 -243 0 -242 120 0 120 0 0 500 0 500 -38 0 c-35 0 -48 -11
-222 -185 l-185 -185 -185 185 c-174 174 -187 185 -223 185 l-37 0 0 -138z"/>
<path d="M0 495 l0 -495 120 0 120 0 0 495 0 495 -120 0 -120 0 0 -495z"/>
<path d="M1275 943 c14 -27 97 -175 182 -330 86 -156 159 -283 162 -283 10 0
146 251 143 263 -2 7 -51 99 -110 205 l-106 192 -149 0 -149 0 27 -47z"/>
<path d="M2086 948 c-13 -24 -111 -198 -216 -388 l-192 -345 56 -105 c54 -104
55 -105 94 -108 l39 -3 266 490 c147 269 267 492 267 495 0 4 -65 6 -145 6
l-144 0 -25 -42z"/>
<path d="M2810 980 c-154 -27 -287 -130 -359 -280 -36 -74 -36 -76 -36 -205 0
-129 0 -131 36 -205 61 -127 151 -210 280 -258 270 -100 584 69 648 348 13 58
13 172 0 230 -57 248 -313 414 -569 370z m196 -254 c63 -29 120 -95 139 -160
19 -62 19 -80 0 -142 -52 -177 -279 -244 -412 -121 -66 61 -87 108 -87 192 0
53 5 80 21 111 27 50 100 117 145 131 59 19 139 15 194 -11z"/>
<path d="M3520 495 l0 -495 115 0 115 0 0 495 0 495 -115 0 -115 0 0 -495z"/>
<path d="M4209 966 c-105 -37 -186 -100 -251 -193 -107 -156 -106 -390 3 -552
51 -77 105 -123 194 -167 283 -138 620 19 703 329 l10 37 -123 0 -123 0 -26
-44 c-34 -57 -88 -102 -149 -122 -137 -46 -295 49 -326 196 -37 170 129 337
297 299 88 -19 164 -80 192 -153 10 -26 10 -26 134 -26 l125 0 -16 53 c-69
232 -248 367 -487 367 -69 0 -107 -6 -157 -24z"/>
<path d="M4960 870 l0 -120 440 0 440 0 0 120 0 120 -440 0 -440 0 0 -120z"/>
<path d="M6982 647 l3 -342 33 -67 c93 -190 355 -284 578 -208 113 39 214 125
257 218 21 45 22 63 25 395 l3 347 -120 0 -121 0 0 -281 c0 -320 -4 -343 -65
-405 -97 -97 -252 -76 -322 44 l-28 47 -3 298 -3 297 -120 0 -120 0 3 -343z"/>
<path d="M8000 870 l0 -120 233 0 c230 0 234 0 285 -26 91 -45 141 -127 142
-230 0 -104 -57 -191 -155 -235 -31 -14 -65 -19 -152 -19 l-113 0 0 205 0 205
-120 0 -120 0 0 -325 0 -325 238 0 c259 0 313 8 405 57 299 164 348 586 92
811 -57 50 -148 95 -223 111 -30 6 -154 11 -282 11 l-230 0 0 -120z"/>
<path d="M9382 958 c-11 -18 -36 -64 -57 -103 l-37 -70 218 -392 217 -393 149
0 149 0 -38 68 c-21 38 -144 260 -273 495 l-235 426 -37 1 c-31 0 -39 -5 -56
-32z"/>
<path d="M10080 495 l0 -495 120 0 120 0 0 205 0 205 203 -2 202 -3 3 -202 2
-203 115 0 115 0 0 495 0 495 -115 0 -115 0 0 -170 0 -170 -205 0 -205 0 0
170 0 170 -120 0 -120 0 0 -495z"/>
<path d="M9037 335 l-185 -336 150 3 150 3 113 204 113 205 -29 50 c-16 28
-48 86 -72 128 -23 43 -45 78 -48 78 -4 0 -90 -151 -192 -335z"/>
<path d="M4960 325 l0 -325 440 0 440 0 0 120 0 120 -322 2 -323 3 0 80 0 80
283 3 282 2 0 120 0 120 -400 0 -400 0 0 -325z"/>
<path d="M360 297 l0 -297 120 0 120 0 0 178 0 177 -120 120 -120 120 0 -298z"/>
<path d="M5970 292 l0 -292 115 0 115 0 0 178 0 177 -115 115 -115 115 0 -293z"/>
</g>
</svg>
